<svg width="64" height="64" viewBox="0 0 64 64" fill="none" xmlns="http://www.w3.org/2000/svg">
<rect width="64" height="64" rx="8" fill="url(#paint0_linear_0_182)"/>
<path fill-rule="evenodd" clip-rule="evenodd" d="M42.5507 28.6084L34.9157 36.2437H45.7313C46.7561 36.2437 47.5903 37.0779 47.5903 38.1027V45.1097C47.5903 46.1345 46.7563 46.9687 45.7313 46.9687C45.7313 46.9687 21.7344 46.9653 21.6136 46.9574C18.8062 46.7755 16.6069 44.3532 16.6069 41.443V17.8444C16.6069 16.8195 17.4411 15.9854 18.4659 15.9854H25.4729C26.4978 15.9854 27.3319 16.8195 27.3319 17.8444V28.6599L34.9673 21.0249C35.6919 20.2996 36.8717 20.3002 37.5964 21.0249L42.5507 25.9793C43.2757 26.704 43.2757 27.8837 42.5507 28.6084ZM36.7539 21.8674C36.4944 21.6076 36.0704 21.6076 35.8098 21.8674L27.3319 30.3436V32.0304L35.0179 24.3445C35.2506 24.1118 35.6277 24.1118 35.8604 24.3445L39.2312 27.7152C39.4639 27.9479 39.4639 28.3251 39.2312 28.5577L31.5452 36.2437L33.2347 36.2397L41.7082 27.7659C41.9683 27.5055 41.9683 27.0822 41.7082 26.8218L36.7539 21.8674ZM30.3832 30.6642L32.9115 33.1924L31.2263 34.8776L28.698 32.3493L30.3832 30.6642ZM35.4395 30.6645L32.9112 28.1362L31.2259 29.8215L33.7541 32.3498L35.4395 30.6645ZM36.282 29.822L33.7537 27.2937L35.439 25.6084L37.9673 28.1366L36.282 29.822ZM27.334 33.7128C27.3332 33.7131 27.3325 33.7135 27.3319 33.7141V36.2437H29.8616C29.862 36.2433 29.8623 36.2429 29.8625 36.2424C29.8627 36.2422 29.8628 36.2419 29.8629 36.2417L29.8633 36.2409L29.8642 36.2397L30.3837 35.7203L27.8554 33.192L27.336 33.7114C27.3354 33.712 27.3347 33.7124 27.334 33.7128ZM17.7986 41.443V17.8444C17.7986 17.4764 18.098 17.177 18.4659 17.177H25.4728C25.8409 17.177 26.1401 17.4764 26.1401 17.8444V41.6062C26.1401 42.7714 25.6717 43.8525 24.8211 44.6497C23.9716 45.4467 22.8575 45.8454 21.6903 45.7681C19.5082 45.6266 17.7986 43.7268 17.7986 41.443ZM45.7313 45.777C46.0992 45.777 46.3986 45.4778 46.3986 45.1097V38.1027C46.3986 37.7348 46.0994 37.4354 45.7313 37.4354H27.3319V41.6062C27.3319 43.0827 26.7141 44.5088 25.6363 45.5191C25.5389 45.6104 25.4366 45.6939 25.3341 45.777H45.7313Z" fill="white"/>
<path fill-rule="evenodd" clip-rule="evenodd" d="M21.9693 39.2227C23.2834 39.2227 24.3526 40.2919 24.3526 41.606C24.3526 42.9201 23.2834 43.9893 21.9693 43.9893C20.6552 43.9893 19.5859 42.9201 19.5859 41.606C19.5859 40.2919 20.6552 39.2227 21.9693 39.2227ZM21.9693 40.4143C21.3121 40.4143 20.7776 40.9488 20.7776 41.606C20.7776 42.2632 21.3121 42.7977 21.9693 42.7977C22.6265 42.7977 23.1609 42.2632 23.1609 41.606C23.1609 40.9488 22.6265 40.4143 21.9693 40.4143Z" fill="white"/>
<defs>
<linearGradient id="paint0_linear_0_182" x1="-9.67426" y1="0" x2="-9.67426" y2="83.3485" gradientUnits="userSpaceOnUse">
<stop stop-color="#FCB33A"/>
<stop offset="1" stop-color="#F1853D"/>
</linearGradient>
</defs>
</svg>
