<svg width="64" height="64" viewBox="0 0 64 64" fill="none" xmlns="http://www.w3.org/2000/svg">
<rect width="64" height="64" rx="8" fill="#0091FF" fill-opacity="0.1"/>
<path fill-rule="evenodd" clip-rule="evenodd" d="M13.9561 46.786V17.1042C13.9561 15.9588 15.3409 15.3851 16.1509 16.1951L19.0989 19.1431L22.0666 15.1862C22.536 14.5603 23.451 14.4952 24.0043 15.0485L28.0989 19.1431L32.1935 15.0485C32.7468 14.4952 33.6618 14.5603 34.1312 15.1862L37.0989 19.1431L40.0469 16.1951C40.8569 15.3851 42.2418 15.9588 42.2418 17.1042V37.1431H48.6703C49.3804 37.1431 49.9561 37.7187 49.9561 38.4288V42.286C49.9561 46.5464 46.5022 50.0003 42.2418 50.0003H17.1703C15.3951 50.0003 13.9561 48.5612 13.9561 46.786ZM25.2043 29.8621C24.7335 29.3306 23.9209 29.2812 23.3894 29.7521C22.8578 30.2228 22.8085 31.0355 23.2793 31.567L25.6947 34.2944C25.9297 34.5597 26.2639 34.7163 26.6183 34.7271C26.9726 34.7378 27.3157 34.6018 27.5664 34.3511L33.0211 28.8963C33.5233 28.3942 33.5233 27.5801 33.0211 27.078C32.5191 26.5759 31.705 26.5759 31.2029 27.078L26.714 31.5668L25.2043 29.8621ZM47.3846 39.7145H42.2418V47.4288C45.082 47.4288 47.3846 45.1262 47.3846 42.286V39.7145Z" fill="url(#paint0_linear_0_115)"/>
<defs>
<linearGradient id="paint0_linear_0_115" x1="13.9561" y1="14.6719" x2="13.9561" y2="50.0003" gradientUnits="userSpaceOnUse">
<stop stop-color="#00C4FF"/>
<stop offset="1" stop-color="#0091FF"/>
</linearGradient>
</defs>
</svg>
