<svg width="64" height="64" viewBox="0 0 64 64" fill="none" xmlns="http://www.w3.org/2000/svg">
<rect width="64" height="64" rx="8" fill="url(#paint0_linear_0_131)"/>
<path fill-rule="evenodd" clip-rule="evenodd" d="M14.4683 40.0918C14.4694 41.0596 15.2537 41.8439 16.2214 41.845H28.9496L28.0146 46.5201H26.1561C25.8334 46.5201 25.5717 46.7818 25.5717 47.1045V49.4421C25.5717 49.7648 25.8334 50.0265 26.1561 50.0265H37.844C38.1667 50.0265 38.4284 49.7648 38.4284 49.4421V47.1045C38.4284 46.7818 38.1667 46.5201 37.844 46.5201H35.9855L35.0505 41.845H47.7787C48.7465 41.8439 49.5307 41.0596 49.5319 40.0918V16.7161C49.5307 15.7483 48.7465 14.964 47.7787 14.9629H16.2214C15.2537 14.964 14.4694 15.7483 14.4683 16.7161V40.0918ZM37.2596 48.8577H26.7405V47.6889H37.2596V48.8577ZM29.2066 46.5201H34.7935L33.8585 41.845H30.1416L29.2066 46.5201ZM47.7787 40.6762H16.2214C15.8988 40.6758 15.6374 40.4144 15.637 40.0918V37.1698H48.3631V40.0918C48.3627 40.4144 48.1013 40.6758 47.7787 40.6762ZM47.7787 16.1317H16.2214C15.8988 16.132 15.6374 16.3935 15.637 16.7161V36.001H48.3631V16.7161C48.3627 16.3935 48.1013 16.132 47.7787 16.1317Z" fill="white"/>
<path d="M33.7534 38.3389H30.247C29.9242 38.3389 29.6626 38.6005 29.6626 38.9233C29.6626 39.246 29.9242 39.5077 30.247 39.5077H33.7534C34.0761 39.5077 34.3377 39.246 34.3377 38.9233C34.3377 38.6005 34.0761 38.3389 33.7534 38.3389Z" fill="white"/>
<path fill-rule="evenodd" clip-rule="evenodd" d="M35.4057 21.9757H36.0906C36.4134 21.9757 36.675 22.2373 36.675 22.5601C36.675 22.8828 36.4134 23.1445 36.0906 23.1445H35.4057C35.1578 23.8446 34.4957 24.3126 33.753 24.3126C33.0103 24.3126 32.3482 23.8446 32.1004 23.1445H27.9091C27.5863 23.1445 27.3247 22.8828 27.3247 22.5601C27.3247 22.2373 27.5863 21.9757 27.9091 21.9757H32.1004C32.3482 21.2756 33.0103 20.8076 33.753 20.8076C34.4957 20.8076 35.1578 21.2756 35.4057 21.9757ZM33.1686 22.5601C33.1686 22.8828 33.4303 23.1445 33.753 23.1445C34.0756 23.1441 34.3371 22.8827 34.3374 22.5601C34.3374 22.2373 34.0758 21.9757 33.753 21.9757C33.4303 21.9757 33.1686 22.2373 33.1686 22.5601Z" fill="white"/>
<path fill-rule="evenodd" clip-rule="evenodd" d="M31.8993 25.4816H36.0906C36.4134 25.4816 36.675 25.7432 36.675 26.066C36.675 26.3887 36.4134 26.6503 36.0906 26.6503H31.8993C31.6515 27.3505 30.9894 27.8184 30.2467 27.8184C29.504 27.8184 28.8419 27.3505 28.594 26.6503H27.9091C27.5863 26.6503 27.3247 26.3887 27.3247 26.066C27.3247 25.7432 27.5863 25.4816 27.9091 25.4816H28.594C28.8419 24.7814 29.504 24.3135 30.2467 24.3135C30.9894 24.3135 31.6515 24.7814 31.8993 25.4816ZM29.6623 26.066C29.6623 26.3887 29.9239 26.6503 30.2467 26.6503C30.5693 26.65 30.8307 26.3886 30.8311 26.066C30.8311 25.7432 30.5694 25.4816 30.2467 25.4816C29.9239 25.4816 29.6623 25.7432 29.6623 26.066Z" fill="white"/>
<path fill-rule="evenodd" clip-rule="evenodd" d="M35.4057 28.9884H36.0906C36.4134 28.9884 36.675 29.25 36.675 29.5728C36.675 29.8955 36.4134 30.1572 36.0906 30.1572H35.4057C35.1578 30.8573 34.4957 31.3253 33.753 31.3253C33.0103 31.3253 32.3482 30.8573 32.1004 30.1572H27.9091C27.5863 30.1572 27.3247 29.8955 27.3247 29.5728C27.3247 29.25 27.5863 28.9884 27.9091 28.9884H32.1004C32.3482 28.2883 33.0103 27.8203 33.753 27.8203C34.4957 27.8203 35.1578 28.2883 35.4057 28.9884ZM33.1686 29.5728C33.1686 29.8955 33.4303 30.1572 33.753 30.1572C34.0756 30.1568 34.3371 29.8954 34.3374 29.5728C34.3374 29.25 34.0758 28.9884 33.753 28.9884C33.4303 28.9884 33.1686 29.25 33.1686 29.5728Z" fill="white"/>
<defs>
<linearGradient id="paint0_linear_0_131" x1="5.86752" y1="11.735" x2="5.86752" y2="64" gradientUnits="userSpaceOnUse">
<stop stop-color="#94B3FF"/>
<stop offset="1" stop-color="#5B7CFD"/>
</linearGradient>
</defs>
</svg>
